<?xml version="1.0"?>
<svg fill="#000000" xmlns="http://www.w3.org/2000/svg" viewBox="0 0 64 64" width="24" height="24">
    <path d="M 32 3 C 24.869 3 18.343969 5.5786562 13.292969 9.8476562 L 13.279297 9.8359375 L 12.59375 10.453125 C 12.13275 10.868125 11.687906 11.301141 11.253906 11.744141 C 11.196906 11.802141 11.141937 11.862875 11.085938 11.921875 C 10.685937 12.338875 10.298828 12.766078 9.9238281 13.205078 C 9.9018281 13.231078 9.8774687 13.256203 9.8554688 13.283203 C 9.0194687 14.270203 8.2517344 15.314203 7.5527344 16.408203 C 7.5527344 16.408203 7.5507812 16.410156 7.5507812 16.410156 L 7.5136719 16.470703 C 7.4066719 16.639703 7.2954063 16.805563 7.1914062 16.976562 L 7.1132812 17.097656 L 7.1171875 17.103516 C 4.5041875 21.457516 3 26.552 3 32 C 3 46.31 13.368 58.1915 27 60.5625 L 27 60.578125 L 27.470703 60.644531 C 27.589703 60.663531 27.708125 60.678312 27.828125 60.695312 L 27.857422 60.699219 C 27.865422 60.700219 27.873812 60.701125 27.882812 60.703125 C 28.496813 60.790125 29.118141 60.854344 29.744141 60.902344 C 29.860141 60.911344 29.974844 60.922688 30.089844 60.929688 C 30.721844 60.972687 31.357 61 32 61 C 32.604 61 33.203828 60.975453 33.798828 60.939453 C 33.842828 60.936453 33.885688 60.932688 33.929688 60.929688 C 34.530687 60.889688 35.126797 60.830859 35.716797 60.755859 L 35.744141 60.751953 L 36.107422 60.705078 C 50.178422 58.709078 61 46.621 61 32 C 61 26.555 59.496719 21.462375 56.886719 17.109375 L 56.890625 17.103516 L 56.816406 16.988281 C 56.024406 15.681281 55.128484 14.446156 54.146484 13.285156 C 54.125484 13.260156 54.102078 13.235938 54.080078 13.210938 C 53.704078 12.768937 53.314109 12.337922 52.912109 11.919922 C 52.857109 11.861922 52.803047 11.803094 52.748047 11.746094 C 52.314047 11.301094 51.86825 10.869125 51.40625 10.453125 L 50.720703 9.8359375 L 50.707031 9.8476562 C 45.657031 5.5796562 39.131 3 32 3 z M 32 5 C 38.56 5 44.573953 7.3414219 49.251953 11.232422 L 32 27.621094 L 14.748047 11.232422 C 19.426047 7.3414219 25.44 5 32 5 z M 32 9 C 27.971 9 24.006156 10.056641 20.535156 12.056641 C 20.056156 12.331641 19.892969 12.943875 20.167969 13.421875 C 20.352969 13.742875 20.688156 13.923828 21.035156 13.923828 C 21.204156 13.923828 21.376203 13.880063 21.533203 13.789062 C 24.701203 11.965063 28.321 11 32 11 C 35.613 11 39.175734 11.932313 42.302734 13.695312 C 42.784734 13.968312 43.393062 13.799406 43.664062 13.316406 C 43.935063 12.836406 43.764203 12.224125 43.283203 11.953125 C 39.857203 10.020125 35.957 9 32 9 z M 50.742188 12.574219 L 50.798828 12.628906 C 51.441828 13.253906 52.055766 13.90675 52.634766 14.59375 C 52.636766 14.59575 52.638625 14.598563 52.640625 14.601562 C 53.234625 15.308562 53.796359 16.047453 54.318359 16.814453 L 35 35.576172 L 35 58.826172 C 33.449 58.999172 31.981719 59.039031 30.511719 58.957031 C 30.451719 58.954031 30.391031 58.947359 30.332031 58.943359 C 29.896031 58.916359 29.460484 58.881031 29.021484 58.832031 L 29 58.828125 L 29 35.576172 L 9.6855469 16.808594 C 10.207547 16.042594 10.765375 15.306562 11.359375 14.601562 C 11.363375 14.596562 11.369047 14.590938 11.373047 14.585938 C 11.949047 13.901938 12.561172 13.251859 13.201172 12.630859 L 13.257812 12.576172 L 32 30.378906 L 50.742188 12.574219 z M 8.5976562 18.541016 L 27 36.423828 L 27 58.529297 C 14.478 56.184297 5 45.202 5 32 C 5 27.097 6.3126563 22.504016 8.5976562 18.541016 z M 55.40625 18.546875 C 57.68825 22.507875 59 27.1 59 32 C 59 45.202 49.522 56.184297 37 58.529297 L 37 36.423828 L 55.40625 18.546875 z M 10.955078 24.283203 C 10.566813 24.318547 10.21975 24.580109 10.09375 24.974609 C 9.36775 27.239609 9 29.603 9 32 C 9 32.553 9.448 33 10 33 C 10.552 33 11 32.553 11 32 C 11 29.81 11.335047 27.650984 11.998047 25.583984 C 12.166047 25.058984 11.877562 24.494172 11.351562 24.326172 C 11.219812 24.284672 11.0845 24.271422 10.955078 24.283203 z M 53.060547 24.326172 C 52.931188 24.314375 52.795563 24.326641 52.664062 24.369141 C 52.138062 24.537141 51.848625 25.099953 52.015625 25.626953 C 52.668625 27.680953 53 29.824 53 32 C 53 32.553 53.448 33 54 33 C 54.552 33 55 32.553 55 32 C 55 29.618 54.637875 27.269531 53.921875 25.019531 C 53.796625 24.624281 53.448625 24.361563 53.060547 24.326172 z M 12.923828 36.552734 C 12.795172 36.536781 12.659844 36.546484 12.527344 36.583984 L 10.611328 37.117188 C 10.074328 37.248188 9.7459531 37.790172 9.8769531 38.326172 C 10.007953 38.862172 10.549938 39.191547 11.085938 39.060547 C 11.107938 39.055547 11.128391 39.048969 11.150391 39.042969 L 13.076172 38.503906 C 13.605172 38.351906 13.911719 37.799531 13.761719 37.269531 C 13.647719 36.872781 13.309797 36.600594 12.923828 36.552734 z M 51.076172 36.552734 C 50.690203 36.600359 50.352281 36.872031 50.238281 37.269531 C 50.088281 37.799531 50.393828 38.351906 50.923828 38.503906 L 52.849609 39.042969 C 52.871609 39.049969 52.892063 39.055547 52.914062 39.060547 C 53.451062 39.191547 53.993047 38.863172 54.123047 38.326172 C 54.253047 37.789172 53.924672 37.248187 53.388672 37.117188 L 51.472656 36.583984 C 51.340156 36.546484 51.204828 36.536859 51.076172 36.552734 z M 14.671875 41.228516 C 14.543109 41.246125 14.415625 41.288875 14.296875 41.359375 L 12.578125 42.382812 C 12.103125 42.664812 11.946516 43.278906 12.228516 43.753906 C 12.510516 44.228906 13.124609 44.383562 13.599609 44.101562 L 15.318359 43.080078 C 15.793359 42.798078 15.949969 42.183984 15.667969 41.708984 C 15.456469 41.352734 15.058172 41.175687 14.671875 41.228516 z M 49.328125 41.230469 C 48.942062 41.177641 48.544281 41.354688 48.332031 41.710938 C 48.049031 42.185937 48.206641 42.797078 48.681641 43.080078 L 50.400391 44.103516 C 50.875391 44.385516 51.488484 44.228906 51.771484 43.753906 C 52.052484 43.278906 51.895875 42.664812 51.421875 42.382812 L 49.703125 41.361328 C 49.584375 41.290828 49.456812 41.248078 49.328125 41.230469 z M 46.089844 45.234375 C 45.844594 45.230875 45.596844 45.317141 45.402344 45.494141 C 44.993344 45.865141 44.963937 46.499203 45.335938 46.908203 L 46.714844 48.345703 C 47.100844 48.745703 47.736719 48.755141 48.136719 48.369141 C 48.536719 47.983141 48.548109 47.347266 48.162109 46.947266 L 46.767578 45.513672 C 46.578078 45.331672 46.335094 45.237875 46.089844 45.234375 z M 17.910156 45.236328 C 17.664781 45.239828 17.421922 45.331672 17.232422 45.513672 L 15.839844 46.947266 C 15.453844 47.347266 15.464281 47.983141 15.863281 48.369141 C 16.263281 48.755141 16.899156 48.74275 17.285156 48.34375 L 18.666016 46.90625 C 19.037016 46.49725 19.006656 45.866141 18.597656 45.494141 C 18.402656 45.318141 18.155531 45.232828 17.910156 45.236328 z M 22.107422 48.3125 C 21.739734 48.279266 21.370016 48.450953 21.166016 48.783203 L 20.189453 50.527344 C 19.899453 50.997344 20.045625 51.614297 20.515625 51.904297 C 20.985625 52.194297 21.602578 52.048125 21.892578 51.578125 C 21.907578 51.554125 21.921594 51.529906 21.933594 51.503906 L 22.908203 49.759766 C 23.157203 49.266766 22.96175 48.665016 22.46875 48.416016 C 22.35275 48.357516 22.229984 48.323578 22.107422 48.3125 z M 41.892578 48.3125 C 41.770141 48.3235 41.648953 48.357516 41.533203 48.416016 C 41.040203 48.665016 40.842797 49.266766 41.091797 49.759766 L 42.068359 51.503906 C 42.081359 51.528906 42.094375 51.554125 42.109375 51.578125 C 42.399375 52.048125 43.014375 52.194297 43.484375 51.904297 C 43.954375 51.614297 44.100547 50.997344 43.810547 50.527344 L 42.835938 48.783203 C 42.631187 48.451703 42.259891 48.2795 41.892578 48.3125 z"/></svg>
