<svg fill="#000000" xmlns="http://www.w3.org/2000/svg" width="24" height="24" viewBox="0 0 50 50"><path d="M 45 26.101563 L 45 21 C 45 20.101563 44.398438 19.300781 43.601563 19.101563 L 39 17.699219 C 33.699219 16.101563 28.699219 14.699219 23.398438 13 C 23.398438 13 23.300781 13 23.300781 13 C 22.5 12.800781 21.699219 13.699219 22.101563 14.5 C 24 18.398438 26 24 26 24 L 32.699219 26.601563 C 32.398438 26.601563 11 38 11 38 L 20 30 L 20 7 C 20 6.101563 19.398438 5.199219 18.601563 5 C 18.601563 5 13.699219 3.101563 10.601563 2.101563 C 10.398438 2 10.199219 2 10 2 C 9.601563 2 9.199219 2.101563 8.800781 2.398438 C 8.300781 2.800781 8 3.398438 8 4 L 8 38.699219 C 8 39.398438 8.300781 40 8.898438 40.300781 C 11 41.800781 13.199219 43.300781 15.300781 44.800781 L 18.300781 46.898438 C 18.601563 47.101563 19 47.300781 19.398438 47.300781 C 19.800781 47.300781 20.101563 47.199219 20.398438 47 C 24.699219 44.398438 29.101563 41.800781 33.398438 39.199219 L 44 32.898438 C 44.601563 32.5 45 31.898438 45 31.199219 Z"/></svg>
